<?xml version="1.0" standalone="no"?>
<!DOCTYPE svg PUBLIC "-//W3C//DTD SVG 1.1//EN" "http://www.w3.org/Graphics/SVG/1.1/DTD/svg11.dtd">
<!--Generator: Xara Designer (www.xara.com), SVG filter version: 6.1.0.18-->
<svg stroke-width="0.501" stroke-linejoin="bevel" fill-rule="evenodd" xmlns:xlink="http://www.w3.org/1999/xlink" xmlns="http://www.w3.org/2000/svg" version="1.1" overflow="visible" width="75pt" height="75pt" viewBox="0 0 75 75">
 <defs>
  <linearGradient id="LinearGradient" gradientUnits="userSpaceOnUse" x1="0" y1="0" x2="55.863" y2="0" gradientTransform="translate(21.642 62.944) rotate(-52.318) skewX(1.29129)">
   <stop offset="0" stop-color="#ffb300"/>
   <stop offset="1" stop-color="#fe8c00"/>
  </linearGradient>
 </defs>
 <g id="Document" fill="none" stroke="black" font-family="Times New Roman" font-size="16" transform="scale(1 -1)">
  <g id="Spread" transform="translate(0 -75)">
   <g id="Your Design Here">
    <g id="Group" stroke="#4c4c4c" stroke-linecap="round" stroke-width="1.65" stroke-miterlimit="79.8403193612775">
     <g id="Group_1" stroke-linejoin="miter" stroke="none" fill="url(#LinearGradient)">
      <path d="M 36.161,4.029 L 13.919,26.251 C 12.407,27.963 13.229,29.897 15.34,29.899 L 32.434,29.907 L 32.409,69.109 C 32.409,71.114 34.036,72.743 36.041,72.743 L 44.326,72.745 C 46.331,72.745 47.962,71.116 47.962,69.111 L 47.986,29.914 L 64.43,29.923 C 66.924,29.925 67.793,28.814 66.475,25.793 L 44.738,4.033 C 42.372,1.667 38.527,1.665 36.161,4.029 Z" marker-start="none" marker-end="none"/>
     </g>
     <path d="M 28.949,66.689 L 28.946,69.257 C 28.946,71.222 30.541,72.819 32.509,72.82 L 40.975,72.825 C 42.94,72.827 44.539,71.23 44.537,69.264 L 44.567,29.823 L 64.798,29.843 L 64.81,29.842 C 64.772,28.341 64.181,26.854 63.04,25.711 L 41.3,3.951 C 38.937,1.585 35.091,1.583 32.723,3.948 L 10.482,26.17 C 9.46,27.188 8.88,28.482 8.739,29.814 L 28.956,29.824 L 28.956,51.559" fill="none" stroke-linejoin="round"/>
     <path d="M 28.951,57.596 L 28.951,59.454" fill="none" stroke-linejoin="round"/>
    </g>
   </g>
   <g id="MouseOff"/>
  </g>
 </g>
</svg>
