<?xml version="1.0" standalone="no"?>
<!DOCTYPE svg PUBLIC "-//W3C//DTD SVG 1.1//EN" "http://www.w3.org/Graphics/SVG/1.1/DTD/svg11.dtd">
<!--Generator: Xara Designer (www.xara.com), SVG filter version: 6.1.0.18-->
<svg stroke-width="0.501" stroke-linejoin="bevel" fill-rule="evenodd" xmlns:xlink="http://www.w3.org/1999/xlink" xmlns="http://www.w3.org/2000/svg" version="1.1" overflow="visible" width="75pt" height="75pt" viewBox="0 0 75 75">
 <defs>
  <linearGradient id="LinearGradient" gradientUnits="userSpaceOnUse" x1="0" y1="0" x2="31.726" y2="0" gradientTransform="translate(24.819 69.045) rotate(-33.8493) skewX(35.2547)">
   <stop offset="0" stop-color="#ffb300"/>
   <stop offset="1" stop-color="#fe8c00"/>
  </linearGradient>
  <linearGradient id="LinearGradient_1" gradientUnits="userSpaceOnUse" x1="0" y1="0" x2="31.728" y2="0" gradientTransform="translate(24.816 26.226) rotate(-33.8473) skewX(35.2583)">
   <stop offset="0" stop-color="#ffb300"/>
   <stop offset="1" stop-color="#fe8c00"/>
  </linearGradient>
  <linearGradient id="LinearGradient_2" gradientUnits="userSpaceOnUse" x1="0" y1="0" x2="50.007" y2="0" gradientTransform="translate(15.003 45.02) rotate(-27.162) skewX(46.5562)">
   <stop offset="0" stop-color="#ffb300"/>
   <stop offset="1" stop-color="#fe8c00"/>
  </linearGradient>
 </defs>
 <g id="Document" fill="none" stroke="black" font-family="Times New Roman" font-size="16" transform="scale(1 -1)">
  <g id="Spread" transform="translate(0 -75)">
   <g id="Your Design Here">
    <g id="Group" stroke-width="1.65" stroke-miterlimit="79.8403193612775">
     <path d="M 59.884,58.029 L 59.884,50.081 L 67.05,50.081 L 67.05,58.029 L 59.884,58.029 Z" stroke="none" fill="#ffb300" stroke-linejoin="miter" marker-start="none" marker-end="none"/>
     <path d="M 11.096,58.029 L 11.096,50.081 L 18.262,50.081 L 18.262,58.029 L 11.096,58.029 Z" stroke="none" fill="#ffb300" stroke-linejoin="miter" marker-start="none" marker-end="none"/>
     <path d="M 18.263,44.788 L 18.263,72.962 L 47.782,72.962 L 47.782,62.705 L 59.884,62.705 L 59.884,44.788 L 18.263,44.788 Z" stroke="none" stroke-linejoin="miter" stroke-linecap="round" marker-start="none" marker-end="none" fill="url(#LinearGradient)"/>
     <path d="M 18.259,30.144 L 18.259,1.969 L 59.884,1.969 L 59.884,30.144 L 18.259,30.144 Z" stroke="none" stroke-linejoin="miter" stroke-linecap="round" marker-start="none" marker-end="none" fill="url(#LinearGradient_1)"/>
     <path d="M 3.931,18.832 L 3.931,44.933 C 3.931,47.774 6.238,50.081 9.079,50.081 L 69.066,50.081 C 71.909,50.081 74.214,47.774 74.214,44.933 L 74.214,18.832 C 74.214,15.991 71.909,13.684 69.066,13.684 L 59.885,13.684 L 59.885,30.145 L 18.264,30.145 L 18.264,13.684 L 9.079,13.684 C 6.238,13.684 3.931,15.991 3.931,18.832 Z" stroke="none" stroke-linejoin="miter" stroke-linecap="round" marker-start="none" marker-end="none" fill="url(#LinearGradient_2)"/>
     <path d="M 34.507,50.081 L 40.497,50.081" fill="none" stroke="#4c4c4c" stroke-linejoin="round" stroke-linecap="round"/>
     <path d="M 43.626,50.081 L 45.938,50.081" fill="none" stroke="#4c4c4c" stroke-linejoin="round" stroke-linecap="round"/>
     <path d="M 48.745,50.081 L 66.746,50.081 C 69.587,50.081 71.894,47.774 71.894,44.933 L 71.894,18.832 C 71.894,15.991 69.587,13.684 66.746,13.684 L 57.564,13.684 L 57.564,30.145 L 15.943,30.145 L 15.943,13.684 L 6.759,13.684 C 3.916,13.684 1.611,15.991 1.611,18.832 L 1.611,44.933 C 1.611,47.774 3.916,50.081 6.759,50.081 L 31.42,50.081" fill="none" stroke="#4c4c4c" stroke-linejoin="round" stroke-linecap="round"/>
     <path d="M 15.91,50.211 L 15.91,73.032 L 45.85,73.032 L 57.593,61.489 L 57.593,50.211" fill="none" stroke="#4c4c4c" stroke-linejoin="round" stroke-linecap="round"/>
     <path d="M 57.593,61.489 L 45.891,61.489 L 45.85,73.032" fill="none" stroke="#4c4c4c" stroke-linejoin="round" stroke-linecap="round"/>
     <path d="M 15.939,30.144 L 15.939,1.969 L 57.564,1.969 L 57.564,30.144 L 15.939,30.144 Z" stroke="#4c4c4c" stroke-linejoin="round" marker-start="none" marker-end="none"/>
     <path d="M 8.919,50.081 L 8.919,58.218 L 15.91,58.218 L 15.91,50.211 L 8.919,50.081 Z M 57.593,50.211 L 57.593,58.218 L 64.587,58.218 L 64.587,50.081 L 57.593,50.211 Z" stroke="#4c4c4c" stroke-linejoin="round" marker-start="none" marker-end="none"/>
     <path d="M 61.996,40.639 C 63.02,41.663 64.684,41.663 65.708,40.639 C 66.732,39.615 66.732,37.951 65.708,36.927 C 64.684,35.903 63.02,35.903 61.996,36.927 C 60.972,37.951 60.972,39.615 61.996,40.639 Z" stroke="none" fill="#ffffff" stroke-linejoin="miter" marker-start="none" marker-end="none"/>
     <path d="M 59.675,40.639 C 60.699,41.663 62.363,41.663 63.387,40.639 C 64.411,39.615 64.411,37.951 63.387,36.927 C 62.363,35.903 60.699,35.903 59.675,36.927 C 58.651,37.951 58.651,39.615 59.675,40.639 Z" stroke="#4c4c4c" stroke-linejoin="miter" marker-start="none" marker-end="none"/>
     <g id="Group_1" stroke-linejoin="round" stroke-linecap="round" stroke="#ffffff" fill="#ffffff">
      <path d="M 23.681,22.468 L 45.466,22.468" fill="none"/>
      <path d="M 23.848,16.047 L 51.239,16.047" fill="none"/>
      <path d="M 23.848,9.647 L 51.239,9.647" fill="none"/>
     </g>
     <g id="Group_2" stroke="#4c4c4c" stroke-linejoin="round" stroke-linecap="round">
      <path d="M 22.888,23.135 L 44.674,23.135" fill="none"/>
      <path d="M 23.057,16.714 L 50.446,16.714" fill="none"/>
      <path d="M 23.057,10.313 L 50.446,10.313" fill="none"/>
     </g>
    </g>
   </g>
   <g id="MouseOff"/>
  </g>
 </g>
</svg>
