<?xml version="1.0" standalone="no"?>
<!DOCTYPE svg PUBLIC "-//W3C//DTD SVG 1.1//EN" "http://www.w3.org/Graphics/SVG/1.1/DTD/svg11.dtd">
<!--Generator: Xara Designer (www.xara.com), SVG filter version: 6.1.0.18-->
<svg stroke-width="0.501" stroke-linejoin="bevel" fill-rule="evenodd" xmlns:xlink="http://www.w3.org/1999/xlink" xmlns="http://www.w3.org/2000/svg" version="1.1" overflow="visible" width="75pt" height="75pt" viewBox="0 0 75 75">
 <defs>
  <linearGradient id="LinearGradient" gradientUnits="userSpaceOnUse" x1="0" y1="0" x2="52.158" y2="0" gradientTransform="translate(16.559 44.227) rotate(-35.9726) skewX(31.5776)">
   <stop offset="0" stop-color="#ffb300"/>
   <stop offset="1" stop-color="#fe8c00"/>
  </linearGradient>
 </defs>
 <g id="Document" fill="none" stroke="black" font-family="Times New Roman" font-size="16" transform="scale(1 -1)">
  <g id="Spread" transform="translate(0 -75)">
   <g id="Your Design Here">
    <g id="Group" stroke-width="1.65" stroke-miterlimit="79.8403193612775">
     <path d="M 6.054,51.019 L 6.054,2.171 L 72.734,2.171 L 72.734,51.019 L 6.054,51.019 Z" stroke="none" stroke-linejoin="miter" stroke-linecap="round" marker-start="none" marker-end="none" fill="url(#LinearGradient)"/>
     <path d="M 6.054,51.019 L 6.054,63.105 L 72.734,63.105 L 72.734,51.019 L 6.054,51.019 Z" stroke="none" fill="#fd6e00" stroke-linejoin="round" marker-start="none" marker-end="none"/>
     <path d="M 52.162,51.022 L 47.449,51.022" fill="none" stroke="#4c4c4c" stroke-linejoin="round" stroke-linecap="round"/>
     <path d="M 43.631,51.02 L 34.495,51.02" fill="none" stroke="#4c4c4c" stroke-linejoin="round" stroke-linecap="round"/>
     <path d="M 30.233,51.02 L 3.091,51.02 L 3.091,2.171 L 69.772,2.171 L 69.772,51.02 L 55.954,51.02" fill="none" stroke="#4c4c4c" stroke-linejoin="round" stroke-linecap="round"/>
     <path d="M 3.091,51.02 L 3.091,63.106 L 69.772,63.106 L 69.772,51.02" fill="none" stroke="#4c4c4c" stroke-linejoin="round" stroke-linecap="round"/>
     <g id="Group_1" stroke="#4c4c4c" stroke-linejoin="round" stroke-linecap="round">
      <path d="M 19.819,58.526 C 17.766,57.547 15.678,59.906 15.162,63.794 C 14.646,67.682 15.89,71.636 17.943,72.615 C 19.995,73.595 22.081,71.234 22.6,67.346" fill="none"/>
      <path d="M 54.992,58.526 C 52.94,57.547 50.854,59.906 50.335,63.794 C 49.82,67.682 51.064,71.636 53.116,72.615 C 55.169,73.595 57.257,71.234 57.773,67.346" fill="none"/>
      <path d="M 37.405,58.524 C 35.353,57.545 33.266,59.904 32.749,63.792 C 32.233,67.68 33.477,71.634 35.529,72.613 C 37.581,73.593 39.669,71.234 40.186,67.346" fill="none"/>
     </g>
     <path d="M 35.022,30.191 L 35.022,23.385 L 41.835,23.385 L 41.835,30.191 L 35.022,30.191 Z" stroke="none" fill="#ffffff" stroke-linejoin="round" marker-start="none" marker-end="none"/>
     <g id="Group_2" stroke-linejoin="round" stroke="#4c4c4c">
      <path d="M 9.217,30.191 L 9.217,23.385 L 16.03,23.385 L 16.03,30.191 L 9.217,30.191 Z" marker-start="none" marker-end="none"/>
      <path d="M 21.121,30.191 L 21.121,23.385 L 27.934,23.385 L 27.934,30.191 L 21.121,30.191 Z" marker-start="none" marker-end="none"/>
      <path d="M 33.025,30.191 L 33.025,23.385 L 39.838,23.385 L 39.838,30.191 L 33.025,30.191 Z" marker-start="none" marker-end="none"/>
      <path d="M 44.929,30.191 L 44.929,23.385 L 51.742,23.385 L 51.742,30.191 L 44.929,30.191 Z" marker-start="none" marker-end="none"/>
      <path d="M 56.833,30.191 L 56.833,23.385 L 63.646,23.385 L 63.646,30.191 L 56.833,30.191 Z" marker-start="none" marker-end="none"/>
     </g>
     <g id="Group_3" stroke-linejoin="round" stroke="#4c4c4c">
      <path d="M 21.121,42.096 L 21.121,35.29 L 27.934,35.29 L 27.934,42.096 L 21.121,42.096 Z" marker-start="none" marker-end="none"/>
      <path d="M 33.025,42.096 L 33.025,35.29 L 39.838,35.29 L 39.838,42.096 L 33.025,42.096 Z" marker-start="none" marker-end="none"/>
      <path d="M 44.929,42.096 L 44.929,35.29 L 51.742,35.29 L 51.742,42.096 L 44.929,42.096 Z" marker-start="none" marker-end="none"/>
      <path d="M 56.833,42.096 L 56.833,35.29 L 63.646,35.29 L 63.646,42.096 L 56.833,42.096 Z" marker-start="none" marker-end="none"/>
     </g>
     <g id="Group_4" stroke-linejoin="round" stroke="#4c4c4c">
      <path d="M 9.218,19.048 L 9.218,12.242 L 16.031,12.242 L 16.031,19.048 L 9.218,19.048 Z" marker-start="none" marker-end="none"/>
      <path d="M 21.123,19.048 L 21.123,12.242 L 27.936,12.242 L 27.936,19.048 L 21.123,19.048 Z" marker-start="none" marker-end="none"/>
      <path d="M 33.027,19.048 L 33.027,12.242 L 39.84,12.242 L 39.84,19.048 L 33.027,19.048 Z" marker-start="none" marker-end="none"/>
     </g>
    </g>
   </g>
   <g id="MouseOff"/>
  </g>
 </g>
</svg>
