<svg xmlns="http://www.w3.org/2000/svg" viewBox="0 0 760.11 168.73"><defs><style>.cls-1{fill:#999;}.cls-2{fill:none;stroke:#1a1a1a;stroke-miterlimit:10;stroke-width:7px;}.cls-3{fill:#f7931e;}.cls-4{fill:#1a1a1a;}.cls-5{fill:#f47d08;}</style></defs><g id="Layer_2" data-name="Layer 2"><g id="Layer_1-2" data-name="Layer 1"><path class="cls-1" d="M125.61,157.88a2.77,2.77,0,0,1-.74,1.72c-1.9,2.28-5.87,2.68-8.38,3.35-4.35,1.17-8.81,2.1-13.23,2.87-2.84.5-5.69.9-8.55,1.23a256.09,256.09,0,0,1-29.82,1.68A243.47,243.47,0,0,1,35,166.94a136.31,136.31,0,0,1-17.26-3.12c-3.35-.86-6.83-.9-10.07-2.39-6.44-3-.14-6.12,3.17-7.39a66.51,66.51,0,0,1,9.52-2.66c13-2.85,28.07-4.29,44.83-4.29s31.74,1.44,44.58,4.26c3.39.74,6.81,1.05,10.17,2C121.56,153.77,125.69,155.45,125.61,157.88Z"/><path class="cls-2" d="M21.38,145.72A273,273,0,0,1,62.22,143a271.52,271.52,0,0,1,40.64,2.7q17.65,2.7,17.65,6.88,0,2.89-9.14,5.14A142.66,142.66,0,0,1,89.14,161Q76,162.09,62,162.1T34.77,161a150.23,150.23,0,0,1-22.23-3.35q-9-2.2-9-5Q3.51,148.44,21.38,145.72Z"/><path class="cls-3" d="M126.81,64.56a59.6,59.6,0,0,1-2.32,16.58c-3.64,12.64-11.43,23.75-19.6,33.94-11,13.67-23,26.65-34.19,40.18q-2.43,3-4.84,0c-11.21-13.53-23.21-26.51-34.19-40.18-8.15-10.19-15.92-21.27-19.6-33.94A59.55,59.55,0,0,1,9.8,64.56a58.51,58.51,0,0,1,117-1.22v1.22Z"/><path class="cls-2" d="M120.52,61.4A59.42,59.42,0,0,1,118.22,78c-3.64,12.64-11.43,23.75-19.6,33.94-11,13.67-23,26.64-34.18,40.18-1.63,2-3.23,2-4.85,0C48.39,138.59,36.37,125.62,25.4,112,17.25,101.76,9.47,90.68,5.8,78A59.78,59.78,0,0,1,3.51,61.4a58.51,58.51,0,0,1,117,0Z"/><path class="cls-4" d="M40.86,73.07c2.45,0,4.42,2.28,4.42,5.06,0,11.72,8.34,21.2,18.57,21.2s18.53-9.48,18.53-21.17c0-2.81,2-5.06,4.46-5.06s4.42,2.28,4.42,5.06c0,17.28-12.3,31.35-27.43,31.35S36.4,95.44,36.4,78.16C36.41,75.35,38.4,73.07,40.86,73.07Z"/><path class="cls-4" d="M90.69,54.51A5.69,5.69,0,1,1,85,48.82,5.68,5.68,0,0,1,90.69,54.51Z"/><path class="cls-4" d="M33.38,51.29c3.26,2.44,6.18,5,9.34,7.82V53.74c-3.16,1.9-4.69,3-7.43,3.1-4.87.16-4.9,7.74,0,7.59A19.57,19.57,0,0,0,48,59.1a3.79,3.79,0,0,0,0-5.36,105.17,105.17,0,0,0-10.87-9c-1.66-1.27-4.23-.28-5.18,1.35-1.13,1.94-.28,4,1.36,5.19Z"/><path class="cls-4" d="M216.81,79.5A3.52,3.52,0,0,1,219,77.79a13.05,13.05,0,0,1,3.93-.5,14.48,14.48,0,0,1,3.77.41,6.53,6.53,0,0,1,2.14,1A3.67,3.67,0,0,1,230,80.33a16.4,16.4,0,0,1,.41,4.25V130a24.72,24.72,0,0,1-.14,2.85,6.44,6.44,0,0,1-.78,2.16q-1.14,2.22-6.38,2.22c-3.83,0-6.06-1-6.72-3a13.66,13.66,0,0,1-.49-4.26V113.33h-21.7V130a24.27,24.27,0,0,1-.13,2.83,6.36,6.36,0,0,1-.75,2.17q-1.14,2.22-6.39,2.22-5.73,0-6.72-3a13.88,13.88,0,0,1-.51-4.25V84.5a24.09,24.09,0,0,1,.12-2.82,6.55,6.55,0,0,1,.78-2.18q1.14-2.2,6.39-2.21c3.82,0,6.08,1,6.8,3a16.4,16.4,0,0,1,.41,4.25v16.71h21.7V84.5a22.09,22.09,0,0,1,.12-2.82A6.55,6.55,0,0,1,216.81,79.5Z"/><path class="cls-4" d="M242.6,99.71a22.56,22.56,0,0,1,15.73-6.39A22.19,22.19,0,0,1,274,99.71,22.62,22.62,0,0,1,277.25,128a22.14,22.14,0,0,1-8.57,7.78,23.33,23.33,0,0,1-10.44,2.46,22.4,22.4,0,0,1-10.48-2.66,23.28,23.28,0,0,1-8.56-7.87,20.54,20.54,0,0,1-3.48-11.75A21.2,21.2,0,0,1,242.6,99.71Zm10.24,22.07a8.66,8.66,0,0,0,5.33,2,8.83,8.83,0,0,0,5.4-2.05,7.11,7.11,0,0,0,2.7-6c0-2.68-.84-4.67-2.53-6a8.86,8.86,0,0,0-5.49-2,8.58,8.58,0,0,0-5.49,2.05,7.29,7.29,0,0,0-2.54,6,7.1,7.1,0,0,0,2.62,6Z"/><path class="cls-4" d="M300.18,99.9q3.85-5.82,9.26-5.82a13.41,13.41,0,0,1,12.43,7.11,28.06,28.06,0,0,1,2.18-2.58,17.64,17.64,0,0,1,4.05-3,11.42,11.42,0,0,1,5.73-1.6,14,14,0,0,1,11,5.07q4.43,5,4.43,16.67v14.33a26.6,26.6,0,0,1-.12,2.82,6.64,6.64,0,0,1-.78,2.17q-1.06,2.22-6.3,2.21T335.72,135a7.75,7.75,0,0,1-.69-2.17,22.25,22.25,0,0,1-.12-2.83V115.7q0-7.1-5.08-7.1c-1.91,0-3.21.62-3.89,1.88a11.24,11.24,0,0,0-1,5.33v14.33a25.06,25.06,0,0,1-.13,2.87,6.72,6.72,0,0,1-.77,2.13q-1.15,2.21-6.39,2.21t-6.31-2.29a7.65,7.65,0,0,1-.7-2.17,26.79,26.79,0,0,1-.12-2.83V115.7q0-7.1-5.08-7.1-4.91,0-4.91,7.1v14.5a26.49,26.49,0,0,1-.12,2.82,6.69,6.69,0,0,1-.78,2.18q-1.23,2.13-6.39,2.12t-6.33-2.21a7.61,7.61,0,0,1-.7-2.13,22.8,22.8,0,0,1-.12-2.86V101.29a24.36,24.36,0,0,1,.12-2.83,6.08,6.08,0,0,1,.78-2.09c.82-1.47,2.76-2.21,5.81-2.2s5.05.49,6,1.47A5.92,5.92,0,0,1,300.18,99.9Z"/><path class="cls-4" d="M397.39,110.59c0,3.35-.83,5.84-2.49,7.45a7.82,7.82,0,0,1-5.53,2.41H370q0,2.31,2.7,3.85a10.75,10.75,0,0,0,5.41,1.56,22.74,22.74,0,0,0,7.45-1l.9-.33a8.37,8.37,0,0,1,3.28-.9q2.61,0,4.5,3.68a9.07,9.07,0,0,1,1.06,3.77q0,7.29-17.45,7.29a26.17,26.17,0,0,1-10.76-2.09,18.23,18.23,0,0,1-7.32-5.53,23.54,23.54,0,0,1-5.16-14.8q0-10.32,6.67-16.5t16.67-6.19q11.37,0,16.71,8A16.64,16.64,0,0,1,397.39,110.59ZM380.11,113c2.08,0,3.12-.87,3.12-2.62a3.7,3.7,0,0,0-1.44-3,6.43,6.43,0,0,0-4.09-1.15,8.33,8.33,0,0,0-5.29,2.17c-1.73,1.45-2.61,3-2.61,4.63Z"/><path class="cls-4" d="M427,108.66l-5.33-.32v11.3a5.58,5.58,0,0,0,.7,3.19,3,3,0,0,0,2.62,1,29.18,29.18,0,0,1,3,.12,5.9,5.9,0,0,1,2.18.79c1.26.7,1.88,2.53,1.88,5.48q0,5.16-2.29,6.31a7.43,7.43,0,0,1-2.17.69,20.94,20.94,0,0,1-2.74.12q-8.52,0-12.94-3.84t-4.42-13V108.34a23.73,23.73,0,0,1-3.36.24,3.76,3.76,0,0,1-3-1.39c-.79-.93-1.19-2.51-1.19-4.74a21,21,0,0,1,.41-4.87,4.44,4.44,0,0,1,1.15-2.18,5.06,5.06,0,0,1,3.28-1.06l2.7.33V86.22a23.42,23.42,0,0,1,.13-2.78,5,5,0,0,1,.77-2c.71-1.36,2.81-2,6.31-2q5.56,0,6.63,3a15.5,15.5,0,0,1,.41,4.18v8c2.4-.22,4.22-.33,5.45-.33a23.41,23.41,0,0,1,2.78.12,6.42,6.42,0,0,1,2.17.78q2.13,1.06,2.13,6.31c0,3.43-.73,5.54-2.21,6.3a7.76,7.76,0,0,1-2.17.7A22.57,22.57,0,0,1,427,108.66Z"/><path class="cls-4" d="M444.32,99.57a22.51,22.51,0,0,1,15.73-6.37,22.26,22.26,0,0,1,15.64,6.35A22.52,22.52,0,0,1,479,127.78a22,22,0,0,1-8.55,7.78,23.14,23.14,0,0,1-10.44,2.5,22.2,22.2,0,0,1-10.49-2.66,23.3,23.3,0,0,1-8.56-7.85,20.67,20.67,0,0,1-3.48-11.76A21.17,21.17,0,0,1,444.32,99.57Zm10.24,22.05a8.68,8.68,0,0,0,5.33,2,8.88,8.88,0,0,0,5.41-2,7.19,7.19,0,0,0,2.7-6q0-4-2.54-6a8.78,8.78,0,0,0-5.49-2,8.6,8.6,0,0,0-5.49,2,7.26,7.26,0,0,0-2.54,6A7.07,7.07,0,0,0,454.56,121.62Z"/><path class="cls-4" d="M541.37,94.49c3.5,1.53,5.24,3.41,5.24,5.66a13.17,13.17,0,0,1-1.31,4.46q-1.31,3.06-2.2,5.36l-9,21.95A8.46,8.46,0,0,1,530,137a7.36,7.36,0,0,1-3.11.59,5.71,5.71,0,0,1-3.65-1.43,7.35,7.35,0,0,1-2.33-2.91l-.66-1.39q-.65-1.63-4.83-12.78c-.54,1.31-1.35,3.46-2.41,6.43s-1.75,4.83-2.05,5.57-.49,1.23-.6,1.47a9.15,9.15,0,0,1-.69,1.36,8.35,8.35,0,0,1-1.31,1.71,6.22,6.22,0,0,1-4.5,2,6.44,6.44,0,0,1-4.26-1.43,7.44,7.44,0,0,1-2.3-2.91l-12.36-30.14a13.61,13.61,0,0,1-.82-3.19q0-3.28,4.67-5.16A11.83,11.83,0,0,1,493,93.69a4.69,4.69,0,0,1,4.1,2.09,6.91,6.91,0,0,1,.65,1.44q1.39,3.25,5.82,15.39l4.83-13.27a6.45,6.45,0,0,1,1.78-2.86,6.63,6.63,0,0,1,9.05-1.06A7.79,7.79,0,0,1,521.68,98l.65,1.39q4.09,11.46,4.83,13.1l5-13.62q2-5.23,5.92-5.24A7.8,7.8,0,0,1,541.37,94.49Z"/><path class="cls-4" d="M575.11,94.17a17.28,17.28,0,0,1,13.62,6.26,22.45,22.45,0,0,1,5.45,15.27v14.42a22.17,22.17,0,0,1-.12,2.82,6.7,6.7,0,0,1-.7,2.09q-1.14,2.22-6.38,2.22-5.82,0-6.73-3a13.68,13.68,0,0,1-.49-4.18V115.62a6.57,6.57,0,0,0-7.08-7.12,7.17,7.17,0,0,0-5.24,2,6.92,6.92,0,0,0-2,5.16v14.5a22.17,22.17,0,0,1-.12,2.82,5.82,5.82,0,0,1-.78,2.09q-1.06,2.22-6.3,2.22T551.92,135a7.43,7.43,0,0,1-.69-2.17,24.27,24.27,0,0,1-.13-2.83v-29a22.92,22.92,0,0,1,.13-2.75,5.8,5.8,0,0,1,.77-2.09c.76-1.36,2.87-2,6.31-2s5.37.62,6.14,1.88a6.54,6.54,0,0,1,.82,3.36,8.5,8.5,0,0,1,1.47-1.64A13.72,13.72,0,0,1,569,96.05,10.65,10.65,0,0,1,575.11,94.17Z"/><path class="cls-4" d="M613.45,123.81q1.38,1.39,1.39,5.74v.32a25.65,25.65,0,0,1-.13,2.91,6.29,6.29,0,0,1-.86,2.25q-1.23,2.37-6.18,2.37t-6.55-1.56c-1.07-1-1.6-3-1.6-5.9v-.33a24.87,24.87,0,0,1,.12-2.86,6.63,6.63,0,0,1,.78-2.21q1.23-2.46,6.19-2.46T613.45,123.81Z"/><path class="cls-5" d="M659.88,77.29a24.2,24.2,0,0,1,2.82.13,5.92,5.92,0,0,1,2.13.77,3.63,3.63,0,0,1,1.68,2.21,17.9,17.9,0,0,1,0,8.36,3.44,3.44,0,0,1-1.72,2.17,7.18,7.18,0,0,1-2.16.74,23.6,23.6,0,0,1-2.91.12H634.66v8.29h16.13a28.32,28.32,0,0,1,2.91.12,6.72,6.72,0,0,1,2.17.78c1.41.82,2.13,3,2.13,6.47q0,5.73-3.11,6.8a15.1,15.1,0,0,1-4.18.4H634.66v15.48a22.89,22.89,0,0,1-.13,2.87,6.49,6.49,0,0,1-.77,2.13q-1.15,2.22-6.39,2.21c-3.83,0-6.07-1-6.72-3.11a12.82,12.82,0,0,1-.49-4.18V84.5q0-4.17,1.55-5.69c1-1,3-1.52,5.92-1.52Z"/><path class="cls-5" d="M686.61,137.16a17.39,17.39,0,0,1-13.72-6.26,22.5,22.5,0,0,1-5.44-15.28V101.29a25,25,0,0,1,.11-2.87,8,8,0,0,1,.7-2.13q1.15-2.21,6.39-2.21,5.73,0,6.72,3.12a12.76,12.76,0,0,1,.49,4.17V115.7a6.58,6.58,0,0,0,7.08,7.13,7.21,7.21,0,0,0,5.24-2,6.93,6.93,0,0,0,2-5.17V101.21a26.67,26.67,0,0,1,.12-2.83,6.49,6.49,0,0,1,.78-2.17q1.06-2.13,6.31-2.13t6.3,2.21a7.65,7.65,0,0,1,.7,2.17,24.36,24.36,0,0,1,.12,2.83v29a22.84,22.84,0,0,1-.12,2.74,5.64,5.64,0,0,1-.78,2.09q-1.23,2.13-6.31,2.13t-6.14-2a6.42,6.42,0,0,1-.81-3.35,8.8,8.8,0,0,1-1.48,1.63,20,20,0,0,1-2.21,1.78A11,11,0,0,1,686.61,137.16Z"/><path class="cls-5" d="M741,94.17a17.28,17.28,0,0,1,13.62,6.26,22.44,22.44,0,0,1,5.44,15.27v14.42a22.17,22.17,0,0,1-.12,2.82,6.94,6.94,0,0,1-.69,2.09q-1.15,2.22-6.39,2.22c-3.88,0-6.11-1-6.72-3a13.38,13.38,0,0,1-.49-4.18V115.62a6.57,6.57,0,0,0-7.08-7.12,7.17,7.17,0,0,0-5.24,2,6.92,6.92,0,0,0-2,5.16v14.5a24.18,24.18,0,0,1-.12,2.82,6,6,0,0,1-.78,2.09q-1.07,2.22-6.31,2.22t-6.3-2.22a7.18,7.18,0,0,1-.68-2.15,24.37,24.37,0,0,1-.13-2.83v-29a22.92,22.92,0,0,1,.13-2.75,5.64,5.64,0,0,1,.78-2.09c.76-1.36,2.87-2,6.3-2s5.38.62,6.14,1.88a6.44,6.44,0,0,1,.82,3.36,8.55,8.55,0,0,1,1.48-1.64,14.09,14.09,0,0,1,2.21-1.72A10.69,10.69,0,0,1,741,94.17Z"/></g></g></svg>