<?xml version="1.0" standalone="no"?>
<!DOCTYPE svg PUBLIC "-//W3C//DTD SVG 1.1//EN" "http://www.w3.org/Graphics/SVG/1.1/DTD/svg11.dtd">
<!--Generator: Xara Designer (www.xara.com), SVG filter version: 6.1.0.18-->
<svg stroke-width="0.501" stroke-linejoin="bevel" fill-rule="evenodd" xmlns:xlink="http://www.w3.org/1999/xlink" xmlns="http://www.w3.org/2000/svg" version="1.1" overflow="visible" width="75pt" height="75pt" viewBox="0 0 75 75">
 <defs>
  <linearGradient id="LinearGradient" gradientUnits="userSpaceOnUse" x1="0" y1="0" x2="61.61" y2="0" gradientTransform="translate(15.583 62.45) rotate(-44.735) skewX(15.8416)">
   <stop offset="0" stop-color="#ffb300"/>
   <stop offset="1" stop-color="#fe8c00"/>
  </linearGradient>
 </defs>
 <g id="Document" fill="none" stroke="black" font-family="Times New Roman" font-size="16" transform="scale(1 -1)">
  <g id="Spread" transform="translate(0 -75)">
   <g id="Your Design Here">
    <g id="Group" stroke-linecap="round" stroke-width="1.125" stroke-miterlimit="79.8403193612775">
     <path d="M 33.43,3.417 L 33.431,3.42 L 33.431,11.853 L 33.35,11.853 L 33.369,11.928 C 30.566,12.571 27.852,13.677 25.345,15.248 L 25.302,15.18 L 25.246,15.237 L 19.28,9.271 C 17.714,10.386 16.216,11.644 14.814,13.05 C 13.408,14.453 12.151,15.949 11.037,17.514 L 11.039,17.516 L 17.006,23.478 L 16.948,23.534 L 17.013,23.576 C 15.44,26.085 14.334,28.803 13.691,31.608 L 13.616,31.588 L 13.616,31.669 L 5.18,31.669 C 4.529,35.522 4.529,39.468 5.182,43.326 L 13.616,43.326 L 13.616,43.403 L 13.691,43.385 C 14.334,46.189 15.44,48.905 17.013,51.415 L 16.945,51.456 L 17.002,51.513 L 11.036,57.476 C 12.149,59.043 13.408,60.54 14.814,61.944 C 16.216,63.349 17.714,64.606 19.279,65.719 L 25.261,59.739 L 25.313,59.791 L 25.344,59.744 C 27.85,61.316 30.566,62.423 33.371,63.065 L 33.352,63.143 L 33.432,63.143 L 33.431,71.574 C 37.285,72.226 41.231,72.226 45.089,71.573 L 45.089,63.143 L 45.166,63.143 L 45.15,63.065 C 47.952,62.423 50.67,61.313 53.178,59.744 L 53.22,59.811 L 53.278,59.755 L 59.239,65.719 C 60.806,64.606 62.305,63.349 63.707,61.944 C 65.112,60.54 66.37,59.043 67.484,57.474 L 61.519,51.513 L 61.575,51.456 L 61.507,51.414 C 63.079,48.905 64.186,46.189 64.828,43.385 L 64.906,43.403 L 64.906,43.326 L 73.336,43.326 C 73.989,39.468 73.989,35.522 73.337,31.669 L 64.906,31.669 L 64.906,31.588 L 64.828,31.608 C 64.186,28.803 63.079,26.086 61.507,23.577 L 61.572,23.536 L 61.518,23.481 L 67.482,17.516 C 66.37,15.949 65.112,14.453 63.707,13.05 C 62.305,11.644 60.806,10.386 59.239,9.272 L 53.276,15.238 L 53.22,15.182 L 53.178,15.249 C 50.668,13.677 47.952,12.571 45.15,11.928 L 45.166,11.853 L 45.089,11.853 L 45.089,3.419 C 41.233,2.765 37.285,2.765 33.43,3.417 Z M 46.746,30.014 C 50.878,34.145 50.878,40.853 46.746,44.983 C 42.616,49.114 35.909,49.114 31.777,44.983 C 27.645,40.853 27.645,34.145 31.777,30.014 C 35.909,25.882 42.616,25.882 46.746,30.014 Z" stroke="none" stroke-linejoin="miter" marker-start="none" marker-end="none" fill="url(#LinearGradient)"/>
     <g id="Group_1" stroke="#4c4c4c" stroke-linejoin="round">
      <path d="M 14.069,51.46 L 8.057,57.471 C 9.181,59.064 10.455,60.582 11.88,62.004 C 13.303,63.43 14.822,64.703 16.413,65.827 L 22.44,59.799" fill="none"/>
      <path d="M 58.697,23.542 L 64.682,17.557 L 64.709,17.53 C 63.585,15.938 62.313,14.421 60.887,12.999 C 59.465,11.573 57.945,10.298 56.354,9.174 L 56.327,9.202 L 50.343,15.187" fill="none"/>
      <path d="M 50.345,59.814 L 56.354,65.827 C 57.945,64.703 59.465,63.43 60.887,62.004 C 62.313,60.582 63.585,59.064 64.711,57.469 L 58.699,51.46" fill="none"/>
      <path d="M 22.426,15.185 L 16.44,9.2 L 16.414,9.173 C 14.822,10.298 13.303,11.573 11.88,12.999 C 10.455,14.421 9.183,15.938 8.059,17.528 L 8.085,17.556 L 14.073,23.539" fill="none"/>
      <path d="M 61.898,43.408 L 63.582,43.408" fill="none"/>
      <path d="M 70.528,43.408 C 71.197,39.5 71.197,35.499 70.528,31.593 L 62.028,31.593" fill="none"/>
      <path d="M 10.737,31.593 L 2.238,31.593 C 1.569,35.499 1.569,39.5 2.238,43.408 L 10.737,43.408" fill="none"/>
      <path d="M 30.476,63.146 L 30.476,71.646 C 34.382,72.315 38.383,72.315 42.29,71.646 L 42.29,63.146" fill="none"/>
      <path d="M 42.29,11.855 L 42.29,3.382 L 42.29,3.355 C 38.383,2.686 34.382,2.686 30.474,3.355 L 30.474,3.384 L 30.474,11.855" fill="none"/>
      <path d="M 22.425,59.814 C 24.939,61.393 27.663,62.502 30.476,63.146" fill="none"/>
      <path d="M 10.737,43.408 C 11.382,46.219 12.491,48.944 14.069,51.46" fill="none"/>
      <path d="M 14.069,23.537 C 12.491,26.055 11.382,28.78 10.737,31.593" fill="none"/>
      <path d="M 30.474,11.855 C 27.663,12.499 24.94,13.609 22.426,15.185" fill="none"/>
      <path d="M 42.29,63.146 C 45.102,62.502 47.827,61.389 50.343,59.814" fill="none"/>
      <path d="M 62.028,31.593 C 61.385,28.78 60.274,26.057 58.697,23.539" fill="none"/>
      <path d="M 50.343,15.187 C 47.825,13.609 45.102,12.499 42.29,11.855" fill="none"/>
     </g>
     <path d="M 28.898,44.985 C 33.03,49.116 39.736,49.116 43.868,44.985 C 47.999,40.853 47.999,34.147 43.868,30.015 C 39.736,25.884 33.03,25.884 28.898,30.015 C 24.767,34.147 24.767,40.853 28.898,44.985 Z" stroke="#4c4c4c" stroke-linejoin="round" marker-start="none" marker-end="none"/>
    </g>
   </g>
   <g id="MouseOff"/>
  </g>
 </g>
</svg>
