<?xml version="1.0" standalone="no"?>
<!DOCTYPE svg PUBLIC "-//W3C//DTD SVG 1.1//EN" "http://www.w3.org/Graphics/SVG/1.1/DTD/svg11.dtd">
<!--Generator: Xara Designer (www.xara.com), SVG filter version: 6.1.0.18-->
<svg stroke-width="0.501" stroke-linejoin="bevel" fill-rule="evenodd" xmlns:xlink="http://www.w3.org/1999/xlink" xmlns="http://www.w3.org/2000/svg" version="1.1" overflow="visible" width="75pt" height="75pt" viewBox="0 0 75 75">
 <defs>
  <linearGradient id="LinearGradient" gradientUnits="userSpaceOnUse" x1="0" y1="0" x2="51.168" y2="0" gradientTransform="translate(15.378 52.577) rotate(-30.7978) skewX(40.4591)">
   <stop offset="0" stop-color="#ffb300"/>
   <stop offset="1" stop-color="#fe8c00"/>
  </linearGradient>
 </defs>
 <g id="Document" fill="none" stroke="black" font-family="Times New Roman" font-size="16" transform="scale(1 -1)">
  <g id="Spread" transform="translate(0 -75)">
   <g id="Your Design Here">
    <g id="Group" stroke-width="1.125" stroke-miterlimit="79.8403193612775">
     <path d="M 4.441,37.5 C 4.441,49.028 13.798,58.385 25.326,58.385 L 52.985,58.385 C 64.512,58.385 73.87,49.028 73.87,37.5 C 73.87,25.972 64.512,16.615 52.985,16.615 L 25.326,16.615 C 13.798,16.615 4.441,25.972 4.441,37.5 Z" stroke="none" stroke-linejoin="miter" stroke-linecap="round" marker-start="none" marker-end="none" fill="url(#LinearGradient)"/>
     <path d="M 44.365,28.425 C 39.357,33.434 39.357,41.561 44.365,46.571 C 49.375,51.58 57.504,51.58 62.513,46.571 C 67.521,41.561 67.521,33.434 62.513,28.425 C 57.504,23.417 49.375,23.417 44.365,28.425 Z" stroke="none" fill="#ffffff" fill-rule="evenodd" marker-start="none" marker-end="none"/>
     <path d="M 41.319,45.815 C 45.911,50.407 53.365,50.407 57.957,45.815 C 62.549,41.223 62.549,33.769 57.957,29.177 C 53.365,24.585 45.911,24.585 41.319,29.177 C 36.727,33.769 36.727,41.223 41.319,45.815 Z" stroke="#4c4c4c" stroke-linejoin="round" stroke-linecap="round" marker-start="none" marker-end="none"/>
     <path d="M 45.516,57.322 L 37.875,57.322" fill="none" stroke="#4c4c4c" stroke-linejoin="round" stroke-linecap="round"/>
     <path d="M 30.977,57.322 L 27.38,57.322" fill="none" stroke="#4c4c4c" stroke-linejoin="round" stroke-linecap="round"/>
     <path d="M 21.514,57.322 C 10.574,57.322 1.692,48.44 1.692,37.5 L 1.692,37.499 C 1.692,26.558 10.574,17.676 21.514,17.676 L 50.68,17.676 C 61.62,17.676 70.502,26.558 70.502,37.499 L 70.502,37.5 C 70.502,48.44 61.62,57.322 50.68,57.322" fill="none" stroke="#4c4c4c" stroke-linejoin="round" stroke-linecap="round"/>
    </g>
   </g>
   <g id="MouseOff"/>
  </g>
 </g>
</svg>
