<?xml version="1.0" standalone="no"?>
<!DOCTYPE svg PUBLIC "-//W3C//DTD SVG 1.1//EN" "http://www.w3.org/Graphics/SVG/1.1/DTD/svg11.dtd">
<!--Generator: Xara Designer (www.xara.com), SVG filter version: 6.1.0.18-->
<svg stroke-width="0.501" stroke-linejoin="bevel" fill-rule="evenodd" xmlns:xlink="http://www.w3.org/1999/xlink" xmlns="http://www.w3.org/2000/svg" version="1.1" overflow="visible" width="75pt" height="75pt" viewBox="0 0 75 75">
 <defs>
  <linearGradient id="LinearGradient" gradientUnits="userSpaceOnUse" x1="0" y1="0" x2="57.23" y2="0" gradientTransform="translate(19.422 62.053) rotate(-48.2014) skewX(9.31257)">
   <stop offset="0" stop-color="#ffb300"/>
   <stop offset="1" stop-color="#fe8c00"/>
  </linearGradient>
 </defs>
 <g id="Document" fill="none" stroke="black" font-family="Times New Roman" font-size="16" transform="scale(1 -1)">
  <g id="Spread" transform="translate(0 -75)">
   <g id="Your Design Here">
    <g id="Group" stroke-width="1.125" stroke-linecap="round" stroke-miterlimit="79.8403193612775">
     <path d="M 67.095,41.807 L 17.393,70.493 C 13.272,72.87 9.93,70.94 9.93,66.187 L 9.93,8.813 C 9.93,4.059 13.272,2.131 17.393,4.506 L 67.095,33.195 C 71.215,35.571 71.215,39.43 67.095,41.807 Z" stroke="none" stroke-linejoin="miter" marker-start="none" marker-end="none" fill="url(#LinearGradient)"/>
     <path d="M 49.31,49.45 L 48.925,49.671" fill="none" stroke="#4c4c4c" stroke-linejoin="round"/>
     <path d="M 42.979,53.099 L 31.161,59.921" fill="none" stroke="#4c4c4c" stroke-linejoin="round"/>
     <path d="M 25.849,62.987 L 12.839,70.493 C 8.719,72.87 5.377,70.94 5.377,66.187 L 5.377,8.813 C 5.377,4.059 8.719,2.131 12.839,4.506 L 62.542,33.195 C 66.661,35.571 66.661,39.43 62.542,41.807 L 55.332,45.97" fill="none" stroke="#4c4c4c" stroke-linejoin="round"/>
    </g>
   </g>
   <g id="MouseOff"/>
  </g>
 </g>
</svg>
