<?xml version="1.0" standalone="no"?>
<!DOCTYPE svg PUBLIC "-//W3C//DTD SVG 1.1//EN" "http://www.w3.org/Graphics/SVG/1.1/DTD/svg11.dtd">
<!--Generator: Xara Designer (www.xara.com), SVG filter version: 6.1.0.18-->
<svg stroke-width="0.501" stroke-linejoin="bevel" fill-rule="evenodd" xmlns:xlink="http://www.w3.org/1999/xlink" xmlns="http://www.w3.org/2000/svg" version="1.1" overflow="visible" width="75pt" height="75pt" viewBox="0 0 75 75">
 <defs>
  <linearGradient id="LinearGradient" gradientUnits="userSpaceOnUse" x1="0" y1="0" x2="52.258" y2="0" gradientTransform="translate(15.769 42.485) rotate(-33.3632) skewX(36.0895)">
   <stop offset="0" stop-color="#ffb300"/>
   <stop offset="1" stop-color="#fe8c00"/>
  </linearGradient>
 </defs>
 <g id="Document" fill="none" stroke="black" font-family="Times New Roman" font-size="16" transform="scale(1 -1)">
  <g id="Spread" transform="translate(0 -75)">
   <g id="Your Design Here">
    <g id="Group" stroke-linecap="round" stroke-width="1.125" stroke-miterlimit="79.8403193612775">
     <path d="M 18.179,60.929 C 21.165,63.915 26.013,63.915 28.999,60.929 C 31.985,57.943 31.985,53.095 28.999,50.109 C 26.013,47.123 21.165,47.123 18.179,50.109 C 15.193,53.095 15.193,57.943 18.179,60.929 Z" stroke="none" fill="#ffb300" stroke-linejoin="round" marker-start="none" marker-end="none"/>
     <path d="M 73.834,28.426 L 73.834,14.389 C 74.141,6.82 70.485,3.2 63.366,3.037 L 14.656,3.037 C 9.066,3.272 5.473,6.083 4.908,12.785 L 4.908,20.163 L 24.143,39.398 L 33.921,29.623 L 53.155,48.856 L 73.834,28.426 Z" stroke="none" stroke-linejoin="miter" marker-start="none" marker-end="none" fill="url(#LinearGradient)"/>
     <path d="M 43.759,71.962 L 39.401,71.962" fill="none" stroke="#4c4c4c" stroke-linejoin="round"/>
     <path d="M 32.137,71.962 L 11.459,71.962 C 6.08,71.962 1.711,67.594 1.711,62.215 L 1.711,12.785 C 1.711,7.406 6.08,3.037 11.459,3.037 L 60.889,3.037 C 66.268,3.037 70.636,7.406 70.636,12.785 L 70.636,62.215 C 70.636,67.594 66.268,71.962 60.889,71.962 L 53.817,71.962" fill="none" stroke="#4c4c4c" stroke-linejoin="round"/>
     <path d="M 1.711,20.163 L 20.946,39.398 L 40.534,19.809" fill="none" stroke="#4c4c4c" stroke-linejoin="round"/>
     <path d="M 30.723,29.621 L 49.958,48.856 L 69.546,29.267" fill="none" stroke="#4c4c4c" stroke-linejoin="round"/>
     <path d="M 14.485,60.723 C 17.356,63.594 22.02,63.594 24.891,60.723 C 27.762,57.852 27.762,53.188 24.891,50.317 C 22.02,47.446 17.356,47.446 14.485,50.317 C 11.614,53.188 11.614,57.852 14.485,60.723 Z" stroke="#4c4c4c" stroke-linejoin="round" marker-start="none" marker-end="none"/>
    </g>
   </g>
   <g id="MouseOff"/>
  </g>
 </g>
</svg>
