<?xml version="1.0" standalone="no"?>
<!DOCTYPE svg PUBLIC "-//W3C//DTD SVG 1.1//EN" "http://www.w3.org/Graphics/SVG/1.1/DTD/svg11.dtd">
<!--Generator: Xara Designer (www.xara.com), SVG filter version: 6.1.0.18-->
<svg stroke-width="0.501" stroke-linejoin="bevel" fill-rule="evenodd" xmlns:xlink="http://www.w3.org/1999/xlink" xmlns="http://www.w3.org/2000/svg" version="1.1" overflow="visible" width="75pt" height="75pt" viewBox="0 0 75 75">
 <defs>
  <linearGradient id="LinearGradient" gradientUnits="userSpaceOnUse" x1="0" y1="0" x2="61.693" y2="0" gradientTransform="translate(16.641 63.311) rotate(-46.6334) skewX(12.29)">
   <stop offset="0" stop-color="#ffb300"/>
   <stop offset="1" stop-color="#fe8c00"/>
  </linearGradient>
 </defs>
 <g id="Document" fill="none" stroke="black" font-family="Times New Roman" font-size="16" transform="scale(1 -1)">
  <g id="Spread" transform="translate(0 -75)">
   <g id="Your Design Here">
    <g id="Group" stroke-width="1.125" stroke-linecap="round" stroke-miterlimit="79.8403193612775">
     <path d="M 40.995,1.971 L 40.993,1.971 C 38.472,2.768 37.072,5.463 37.871,7.983 L 42.012,21.058 L 26.694,21.058 L 23.948,12.387 C 23.149,9.867 20.453,8.468 17.932,9.265 L 17.931,9.266 C 15.411,10.064 14.011,12.759 14.808,15.277 L 16.638,21.058 L 10.891,21.058 C 8.247,21.058 6.099,23.205 6.099,25.847 L 6.099,25.849 C 6.099,28.491 8.247,30.638 10.891,30.638 L 19.672,30.638 L 24.294,45.234 L 10.891,45.234 C 8.247,45.234 6.099,47.381 6.099,50.022 L 6.099,50.025 C 6.099,52.666 8.247,54.813 10.891,54.813 L 27.328,54.813 L 32.109,69.909 C 32.907,72.429 35.602,73.827 38.123,73.03 L 38.125,73.028 C 40.646,72.232 42.046,69.537 41.247,67.017 L 37.382,54.813 L 52.7,54.813 L 55.172,62.615 C 55.969,65.133 58.665,66.531 61.186,65.735 L 61.187,65.734 C 63.708,64.938 65.108,62.242 64.31,59.723 L 62.755,54.813 L 68.226,54.813 C 70.87,54.813 73.018,52.666 73.018,50.025 L 73.018,50.022 C 73.018,47.381 70.87,45.234 68.226,45.234 L 59.721,45.234 L 55.099,30.638 L 68.226,30.638 C 70.87,30.638 73.018,28.491 73.018,25.849 L 73.018,25.847 C 73.018,23.205 70.87,21.058 68.226,21.058 L 52.065,21.058 L 47.009,5.092 C 46.213,2.573 43.516,1.173 40.995,1.971 Z M 45.045,30.638 L 49.667,45.234 L 34.35,45.234 L 29.726,30.638 L 45.045,30.638 Z" stroke="none" stroke-linejoin="miter" marker-start="none" marker-end="none" fill="url(#LinearGradient)"/>
     <path d="M 13.537,54.812 L 14.606,54.812" fill="none" stroke="#4c4c4c" stroke-linejoin="round"/>
     <path d="M 20.221,54.813 L 23.774,54.813 L 28.555,69.909 C 29.353,72.429 32.048,73.827 34.569,73.03 L 34.571,73.028 C 37.092,72.232 38.492,69.537 37.693,67.017 L 33.828,54.813 L 49.146,54.813 L 51.618,62.615 C 52.413,65.133 55.111,66.531 57.632,65.735 L 57.633,65.734 C 60.154,64.938 61.554,62.242 60.756,59.723 L 59.199,54.813 L 64.672,54.813 C 67.316,54.813 69.464,52.666 69.464,50.025 L 69.464,50.022 C 69.464,47.381 67.316,45.234 64.672,45.234 L 56.167,45.234 L 51.543,30.638 L 64.672,30.638 C 67.316,30.638 69.464,28.491 69.464,25.849 L 69.464,25.847 C 69.464,23.205 67.316,21.058 64.672,21.058 L 48.511,21.058 L 43.455,5.092 C 42.658,2.573 39.962,1.173 37.441,1.971 L 37.439,1.971 C 34.918,2.768 33.518,5.463 34.317,7.983 L 38.456,21.058 L 23.138,21.058 L 20.394,12.387 C 19.595,9.867 16.898,8.468 14.378,9.265 L 14.376,9.266 C 11.857,10.064 10.457,12.759 11.254,15.277 L 13.084,21.058 L 7.336,21.058 C 4.692,21.058 2.544,23.205 2.544,25.847 L 2.544,25.849 C 2.544,28.491 4.692,30.638 7.336,30.638 L 16.118,30.638 L 20.74,45.234 L 7.336,45.234 C 4.692,45.234 2.544,47.381 2.544,50.022 L 2.544,50.025 C 2.544,52.666 4.692,54.813 7.336,54.813 L 8.477,54.813 M 41.49,30.638 L 46.112,45.234 L 30.794,45.234 L 26.172,30.638 L 41.49,30.638" fill="none" stroke="#4c4c4c" stroke-linejoin="round"/>
    </g>
   </g>
   <g id="MouseOff"/>
  </g>
 </g>
</svg>
