<?xml version="1.0" standalone="no"?>
<!DOCTYPE svg PUBLIC "-//W3C//DTD SVG 1.1//EN" "http://www.w3.org/Graphics/SVG/1.1/DTD/svg11.dtd">
<!--Generator: Xara Designer (www.xara.com), SVG filter version: 6.1.0.18-->
<svg stroke-width="0.501" stroke-linejoin="bevel" fill-rule="evenodd" xmlns:xlink="http://www.w3.org/1999/xlink" xmlns="http://www.w3.org/2000/svg" version="1.1" overflow="visible" width="75pt" height="75pt" viewBox="0 0 75 75">
 <defs>
  <linearGradient id="LinearGradient" gradientUnits="userSpaceOnUse" x1="0" y1="0" x2="59.811" y2="0" gradientTransform="translate(16.413 61.348) rotate(-43.8518) skewX(17.4745)">
   <stop offset="0" stop-color="#ffb300"/>
   <stop offset="1" stop-color="#fe8c00"/>
  </linearGradient>
 </defs>
 <g id="Document" fill="none" stroke="black" font-family="Times New Roman" font-size="16" transform="scale(1 -1)">
  <g id="Spread" transform="translate(0 -75)">
   <g id="Your Design Here">
    <g id="Group" stroke-width="1.125" stroke-linecap="round" stroke-miterlimit="79.8403193612775">
     <path d="M 16.868,45.05 C 18.755,46.938 20.791,48.589 22.936,49.998 C 24.475,51.01 26.068,51.897 27.706,52.664 C 32.822,55.055 38.358,56.249 43.895,56.249 L 43.895,70.534 L 73.812,40.585 L 43.895,10.637 L 43.895,29.195 C 34.11,29.195 24.326,25.461 16.868,17.996 C 12.903,14.026 9.992,9.402 8.136,4.469 C 3.004,18.1 5.914,34.085 16.868,45.05 Z" stroke="none" stroke-linejoin="miter" marker-start="none" marker-end="none" fill="url(#LinearGradient)"/>
     <path d="M 18.258,49.492 C 18.506,49.662 18.755,49.832 19.006,49.997" fill="none" stroke="#4c4c4c" stroke-linejoin="round"/>
     <path d="M 24.743,53.098 C 26.681,53.94 28.678,54.611 30.706,55.116" fill="none" stroke="#4c4c4c" stroke-linejoin="round"/>
     <path d="M 39.965,56.248 L 39.965,70.533 L 69.882,40.584 L 39.965,10.634 L 39.965,29.193 C 30.179,29.193 20.396,25.459 12.938,17.994 C 8.973,14.025 6.063,9.401 4.206,4.467 C -0.926,18.098 1.985,34.083 12.938,45.048" fill="none" stroke="#4c4c4c" stroke-linejoin="round"/>
    </g>
   </g>
   <g id="MouseOff"/>
  </g>
 </g>
</svg>
