<?xml version="1.0" standalone="no"?>
<!DOCTYPE svg PUBLIC "-//W3C//DTD SVG 1.1//EN" "http://www.w3.org/Graphics/SVG/1.1/DTD/svg11.dtd">
<!--Generator: Xara Designer (www.xara.com), SVG filter version: 6.1.0.18-->
<svg stroke-width="0.501" stroke-linejoin="bevel" fill-rule="evenodd" xmlns:xlink="http://www.w3.org/1999/xlink" xmlns="http://www.w3.org/2000/svg" version="1.1" overflow="visible" width="75pt" height="75pt" viewBox="0 0 75 75">
 <defs>
  <linearGradient id="LinearGradient" gradientUnits="userSpaceOnUse" x1="0" y1="0" x2="38.316" y2="0" gradientTransform="translate(25.733 68.957) rotate(-28.2739) skewX(44.7028)">
   <stop offset="0" stop-color="#ffb300"/>
   <stop offset="1" stop-color="#fe8c00"/>
  </linearGradient>
  <linearGradient id="LinearGradient_1" gradientUnits="userSpaceOnUse" x1="0" y1="0" x2="48.862" y2="0" gradientTransform="translate(17.976 42.258) rotate(-36.8704) skewX(30.0098)">
   <stop offset="0" stop-color="#ffb300"/>
   <stop offset="1" stop-color="#fe8c00"/>
  </linearGradient>
 </defs>
 <g id="Document" fill="none" stroke="black" font-family="Times New Roman" font-size="16" transform="scale(1 -1)">
  <g id="Spread" transform="translate(0 -75)">
   <g id="Your Design Here">
    <g id="Group" stroke-width="1.125" stroke-linecap="round" stroke-miterlimit="79.8403193612775">
     <path d="M 57.183,45.144 C 44.053,43.848 30.824,43.431 17.336,45.376 L 17.336,65.862 C 17.336,69.79 20.525,72.98 24.453,72.98 L 24.454,72.98 L 63.996,72.98 L 64.004,72.98 C 64.009,72.98 64.014,72.981 64.021,72.981 L 64.023,72.981 C 64.028,72.981 64.033,72.98 64.038,72.98 C 64.705,72.984 65.235,72.813 65.747,72.624 C 69.261,70.561 70.5,67.639 70.641,64.311 L 57.183,64.311 L 57.183,45.144 Z" stroke="none" stroke-linejoin="miter" marker-start="none" marker-end="none" fill="url(#LinearGradient)"/>
     <path d="M 69.996,48.757 L 55.95,2.015 L 22.296,2.015 L 8.248,48.757 C 28.83,42.583 49.415,42.384 69.996,48.757 Z" stroke="none" stroke-linejoin="miter" marker-start="none" marker-end="none" fill="url(#LinearGradient_1)"/>
     <path d="M 54.567,54.06 C 64.102,52.675 68.88,50.295 65.69,47.956 C 61.431,44.833 44.581,42.951 28.083,43.757 C 11.586,44.562 1.65,47.755 5.908,50.879 C 7.401,51.973 10.441,52.916 14.47,53.644" fill="none" stroke="#4c4c4c" stroke-linejoin="round"/>
     <path d="M 66.672,48.759 L 52.627,2.016 L 18.972,2.016 L 13.059,21.702" fill="none" stroke="#4c4c4c" stroke-linejoin="round"/>
     <path d="M 11.415,27.187 L 10.937,28.772" fill="none" stroke="#4c4c4c" stroke-linejoin="round"/>
     <path d="M 9.135,34.763 L 4.924,48.759" fill="none" stroke="#4c4c4c" stroke-linejoin="round"/>
     <path d="M 59.779,65.866 L 59.961,65.866" fill="none" stroke="#4c4c4c" stroke-linejoin="round"/>
     <path d="M 65.232,65.866 L 68.73,65.866 C 68.73,69.791 65.541,72.981 61.613,72.981 L 61.613,72.981 C 57.683,72.981 54.494,69.791 54.494,65.866 L 54.494,45.147" fill="none" stroke="#4c4c4c" stroke-linejoin="round"/>
     <path d="M 48.748,72.984 L 28.456,72.984 L 21.766,72.984 L 21.764,72.984 C 17.836,72.984 14.647,69.794 14.647,65.866 L 14.647,45.38" fill="none" stroke="#4c4c4c" stroke-linejoin="round"/>
     <path d="M 22.146,65.866 L 42.994,65.866" fill="none" stroke="#4c4c4c" stroke-linejoin="round"/>
     <path d="M 22.136,58.62 L 37.811,58.62" fill="none" stroke="#4c4c4c" stroke-linejoin="round"/>
     <path d="M 22.152,51.142 L 46.143,51.142" fill="none" stroke="#4c4c4c" stroke-linejoin="round"/>
     <path d="M 67.098,49.087 C 68.839,45.335 69.867,41.251 69.968,37.092 C 70.312,22.846 59.635,13.081 46.145,15.294 C 33.022,17.446 22.04,30.145 21.136,43.946" fill="none" stroke="#4c4c4c" stroke-linejoin="round"/>
    </g>
   </g>
   <g id="MouseOff"/>
  </g>
 </g>
</svg>
